<?xml version="1.0" encoding="UTF-8"?>
<svg xmlns="http://www.w3.org/2000/svg" xmlns:xlink="http://www.w3.org/1999/xlink" width="28px" height="32px" viewBox="0 0 28 31" version="1.1">
<g id="surface1">
<path style=" stroke:none;fill-rule:evenodd;fill:rgb(47.058824%,34.901961%,81.176471%);fill-opacity:1;" d="M 28 15.5 C 28 17.972656 27.476562 20.3125 26.542969 22.390625 L 14.875 22.390625 C 17.03125 19.140625 19.25 15.207031 19.25 11.195312 C 19.25 6.03125 15.695312 1.683594 10.863281 0.390625 C 11.871094 0.136719 12.921875 0 14 0 C 21.730469 0 28 6.941406 28 15.5 Z M 15.75 11.195312 C 15.75 6.914062 12.222656 3.445312 7.875 3.445312 C 2.054688 3.445312 0 10.769531 0 15.5 C 0 24.058594 6.269531 31 14 31 C 18.144531 31 21.871094 29.003906 24.433594 25.832031 L 7.875 25.832031 C 8.183594 25.445312 8.503906 25.050781 8.835938 24.640625 C 11.914062 20.839844 15.75 16.101562 15.75 11.195312 Z M 15.75 11.195312 "/>
</g>
</svg>
